<?xml version="1.0" encoding="utf-8"?>
<!-- Generator: Adobe Illustrator 29.0.0, SVG Export Plug-In . SVG Version: 9.03 Build 54978)  -->
<svg version="1.0" id="Layer_1" xmlns="http://www.w3.org/2000/svg" xmlns:xlink="http://www.w3.org/1999/xlink" x="0px" y="0px"
	 viewBox="0 0 6311.67 1012.36" style="enable-background:new 0 0 6311.67 1012.36;" xml:space="preserve">
<style type="text/css">
	.st0{fill-rule:evenodd;clip-rule:evenodd;fill:#5E4EF9;}
	.st1{fill-rule:evenodd;clip-rule:evenodd;fill:#9A9AFC;}
	.st2{fill:#1622B7;}
</style>
<g>
	<g>
		<path class="st0" d="M831.42,506.16c0,35.29-12.54,67.73-33.46,92.95c-26.74,32.27-67.12,52.81-112.3,52.81
			s-85.56-20.54-112.3-52.81c-20.91-25.22-33.46-57.66-33.46-92.95c0-35.46,12.64-67.96,33.73-93.25
			c26.71-32.07,66.98-52.51,112.03-52.51s85.32,20.44,112.03,52.51C818.78,438.2,831.42,470.71,831.42,506.16z"/>
		<g>
			<rect x="342.28" y="166.53" class="st1" width="23.54" height="23.54"/>
			<rect x="248.12" y="84.13" class="st1" width="17.66" height="17.66"/>
			<rect x="399.17" y="71.38" class="st1" width="12.75" height="12.75"/>
			<rect x="157.87" y="80.21" class="st1" width="45.12" height="45.12"/>
			<rect x="184.36" y="270.5" class="st1" width="40.22" height="40.22"/>
			<rect x="129.42" y="391.15" class="st1" width="39.24" height="39.24"/>
			<rect x="68.59" y="326.43" class="st1" width="39.24" height="39.24"/>
			<rect x="164.74" y="218.52" class="st1" width="31.39" height="31.39"/>
			<rect x="153.95" y="533.38" class="st1" width="14.71" height="14.72"/>
			<rect x="159.84" y="470.61" class="st1" width="42.18" height="42.18"/>
			<rect x="199.07" y="346.05" class="st1" width="51.91" height="51.89"/>
			<rect x="55.92" y="208.27" class="st1" width="51.91" height="51.89"/>
			<rect x="221.63" y="141.74" class="st1" width="90.51" height="90.51"/>
			<rect x="312.14" y="87.07" class="st1" width="54.66" height="54.66"/>
			<rect x="141.18" y="724.66" class="st1" width="27.46" height="27.46"/>
			<rect x="81.88" y="617.25" class="st1" width="22.56" height="22.56"/>
			<rect x="88.21" y="540.74" class="st1" width="31.39" height="31.39"/>
			<rect x="40.23" y="420.58" class="st1" width="31.39" height="31.39"/>
			<rect x="113.71" y="478.46" class="st1" width="12.75" height="12.75"/>
			<rect x="241.23" y="416.66" class="st1" width="19.62" height="19.62"/>
			<rect x="250.06" y="608.92" class="st1" width="18.64" height="18.64"/>
			<rect x="146.56" y="333.29" class="st1" width="20.11" height="20.11"/>
			<rect x="250.53" y="251.87" class="st1" width="22.56" height="22.56"/>
			<path class="st1" d="M685.66,43.27c-99.89,0-192.81,32.41-268.77,87.12v101.86H313.64c-25.63,34.64-46.61,72.88-61.9,113.79h48.4
				V311.7h34.34v34.34h-34.34v119.69h-75.86c-1.12,13.25-1.69,26.71-1.69,40.3c0,28.78,2.61,56.95,7.63,84.27h50.3v88.44H254.8v98.4
				h63.76v-62.3h26.71v-41.18h41.18v41.18h-41.18v105.08c1.46,1.56,2.91,3.08,4.37,4.64c2.81,2.98,5.69,5.93,8.61,8.85
				c2.37,2.37,4.78,4.75,7.22,7.05c3.69,3.53,7.42,7.02,11.22,10.41c1.19,1.08,2.41,2.17,3.63,3.22c1.69,1.49,3.39,2.98,5.12,4.44
				c1.53,1.32,3.12,2.64,4.68,3.93l0.03,0.03c2.68,2.24,5.42,4.44,8.17,6.64c2.47,1.97,4.98,3.9,7.49,5.83
				c0.17,0.14,0.34,0.24,0.48,0.37c0.74,0.54,1.46,1.12,2.2,1.63c1.12,0.85,2.24,1.66,3.32,2.47c0.03,0,0.07,0.03,0.07,0.03
				c0.47,0.34,0.95,0.71,1.42,1.05c0.64,0.47,1.29,0.95,1.93,1.39c0.88,0.64,1.76,1.25,2.64,1.86c1.12,0.81,2.24,1.63,3.39,2.41
				c0.44,0.3,0.88,0.61,1.32,0.92c1.46,1.02,2.92,2,4.37,2.95c3.49,2.44,7.05,4.75,10.61,7.02c0.88,0.54,1.76,1.08,2.64,1.66
				c1.66,1.05,3.36,2.1,5.08,3.12c0.98,0.61,1.97,1.22,2.95,1.8c6.34,3.8,12.78,7.46,19.29,10.91c1.29,0.71,2.61,1.39,3.9,2.03
				c0.85,0.47,1.73,0.92,2.58,1.36c0.85,0.47,1.73,0.92,2.61,1.36c2.37,1.19,4.71,2.37,7.12,3.53c7.22,3.49,14.54,6.81,22,9.97
				c1.19,0.54,2.41,1.05,3.63,1.53c1.66,0.68,3.32,1.39,5.02,2.03c0.27,0.1,0.51,0.2,0.78,0.3c1.97,0.81,4,1.59,6.03,2.34
				c1.66,0.64,3.36,1.29,5.08,1.9c4.24,1.56,8.54,3.05,12.85,4.51c1.46,0.47,2.88,0.95,4.34,1.42c1.42,0.47,2.88,0.92,4.34,1.39
				c1.46,0.44,2.88,0.88,4.37,1.32c1.46,0.44,2.88,0.88,4.37,1.32c2.92,0.85,5.86,1.66,8.81,2.44c1.56,0.44,3.08,0.81,4.61,1.22
				c0.41,0.1,0.85,0.24,1.25,0.34c1.02,0.27,2.03,0.51,3.05,0.75c0.98,0.24,2,0.47,3.05,0.71c3.42,0.85,6.88,1.63,10.37,2.37
				c1.53,0.34,3.02,0.64,4.51,0.95c1.53,0.3,3.05,0.64,4.54,0.92c1.42,0.3,2.88,0.58,4.3,0.81c2,0.37,4,0.75,6,1.08
				c1.12,0.2,2.24,0.37,3.35,0.54c1.02,0.17,2.03,0.34,3.02,0.47c1.69,0.27,3.36,0.54,5.05,0.78c1.02,0.14,2.03,0.27,3.05,0.44
				c0.91,0.1,1.86,0.27,2.75,0.37c1.56,0.2,3.12,0.41,4.64,0.58c3.12,0.37,6.24,0.75,9.36,1.05h0.14c0.44,0.07,0.85,0.1,1.32,0.17
				c0.51,0.03,1.02,0.1,1.53,0.14c0.92,0.1,1.83,0.17,2.75,0.24c1.93,0.2,3.86,0.34,5.83,0.47c1.49,0.14,2.98,0.24,4.51,0.34
				c1.46,0.1,2.91,0.2,4.37,0.27c0.48,0.03,0.98,0.07,1.46,0.07c1.49,0.1,3.02,0.17,4.54,0.24h0.41c3.36,0.17,6.68,0.27,10.03,0.34
				c3.49,0.1,7.02,0.14,10.51,0.14c3.49,0,6.98-0.03,10.44-0.14c3.29-0.07,6.54-0.17,9.8-0.31c0.92-0.03,1.8-0.07,2.68-0.14
				c1.02-0.03,2.03-0.07,3.05-0.14c0.85-0.03,1.73-0.1,2.58-0.17c0.2,0,0.37,0,0.58-0.03c0.68-0.03,1.36-0.07,2-0.1
				c0.78-0.07,1.56-0.14,2.34-0.17c0.75-0.03,1.53-0.1,2.3-0.17c0.17,0,0.34-0.03,0.51-0.03c0.54-0.03,1.12-0.1,1.66-0.14
				c0.58-0.03,1.15-0.1,1.69-0.14c0.92-0.1,1.83-0.17,2.75-0.27c0.85-0.07,1.73-0.14,2.61-0.24c0.47-0.03,0.98-0.1,1.49-0.14
				c1.66-0.17,3.32-0.37,4.98-0.54h0.1c1.56-0.17,3.15-0.34,4.71-0.54c0.54-0.07,1.12-0.14,1.66-0.24c0.37,0,0.71-0.07,1.05-0.14
				c0.85-0.1,1.73-0.2,2.58-0.31c0.85-0.14,1.69-0.24,2.54-0.37c0.41-0.03,0.81-0.1,1.22-0.17h0.14c0.95-0.1,1.93-0.27,2.91-0.41
				c1.12-0.17,2.24-0.34,3.36-0.51c0.58-0.1,1.15-0.17,1.73-0.3c0.58-0.1,1.15-0.2,1.76-0.31c0.27-0.03,0.51-0.07,0.78-0.14
				c3.56-0.58,7.08-1.19,10.61-1.86c0.17,0,0.34-0.03,0.51-0.1c1.53-0.24,3.02-0.54,4.51-0.85c1.12-0.2,2.2-0.44,3.32-0.68
				c2.34-0.47,4.68-0.98,6.98-1.49c2.81-0.64,5.66-1.32,8.44-2c1.53-0.37,3.05-0.75,4.58-1.15c2.64-0.68,5.25-1.36,7.9-2.07
				c1.93-0.54,3.86-1.08,5.8-1.66c1.25-0.34,2.54-0.71,3.8-1.12c1.46-0.41,2.92-0.85,4.34-1.32c2.88-0.85,5.76-1.76,8.61-2.71
				c2.44-0.81,4.85-1.63,7.25-2.47c0.88-0.31,1.8-0.61,2.64-0.95c4.71-1.66,9.39-3.42,14.07-5.25c0.92-0.37,1.86-0.75,2.75-1.12
				c0.17-0.03,0.3-0.1,0.44-0.17c2.2-0.85,4.37-1.76,6.51-2.68c2.78-1.15,5.53-2.3,8.24-3.53c2.44-1.08,4.88-2.17,7.29-3.32
				c0.64-0.27,1.32-0.58,1.97-0.88c2.3-1.12,4.64-2.2,6.95-3.36c0.13-0.07,0.3-0.17,0.47-0.24c2.14-1.05,4.27-2.1,6.41-3.22
				c0.78-0.37,1.56-0.78,2.34-1.19c2.03-1.05,4.07-2.14,6.1-3.22c0.37-0.2,0.71-0.37,1.05-0.58c1.93-1.05,3.83-2.1,5.73-3.15
				c0.14-0.07,0.27-0.14,0.37-0.2c0.85-0.47,1.69-0.95,2.51-1.42c1.86-1.05,3.73-2.14,5.59-3.22c0.31-0.17,0.64-0.37,0.95-0.58
				c2.47-1.42,4.95-2.92,7.39-4.44c0,0,0,0,0.03,0c2.51-1.56,4.98-3.12,7.49-4.71c2.47-1.59,4.95-3.22,7.39-4.88
				c2.47-1.63,4.91-3.29,7.32-4.98c2.34-1.63,4.64-3.29,6.95-4.98c0.1-0.03,0.17-0.1,0.27-0.17c0,0,0.07-0.03,0.07-0.07
				c0.78-0.58,1.49-1.15,2.17-1.8c0.03-0.03,0.07-0.07,0.1-0.1c0.61-0.58,1.22-1.19,1.76-1.83c0.07-0.1,0.14-0.17,0.24-0.27
				c0.41-0.47,0.78-0.98,1.15-1.53c0.44-0.64,0.88-1.29,1.25-1.97c0.14-0.24,0.27-0.51,0.41-0.78c0.58-1.05,1.05-2.14,1.39-3.29
				c0.14-0.34,0.24-0.68,0.34-1.02c0.07-0.2,0.1-0.37,0.14-0.54c0.14-0.44,0.24-0.88,0.34-1.32c0.03-0.07,0.03-0.14,0.03-0.24
				c0.14-0.64,0.24-1.32,0.31-1.97c0.03-0.1,0.03-0.24,0.03-0.34c0.1-0.81,0.14-1.59,0.14-2.41c0-6.03-2.24-12.1-6.85-16.81
				L848.77,730.19l-17.25-17.66c-7.66-7.86-19.66-9.59-29.12-4.1c-0.88,0.51-1.76,1.02-2.64,1.49c-0.2,0.14-0.41,0.24-0.58,0.34
				c-2.3,1.29-4.68,2.54-7.02,3.73c-2.64,1.39-5.32,2.68-8.03,3.93c-1.22,0.58-2.41,1.12-3.63,1.66c-2.95,1.36-5.97,2.58-8.98,3.76
				c-2.1,0.85-4.24,1.66-6.37,2.44c-0.24,0.1-0.51,0.17-0.75,0.27c-1.39,0.47-2.75,0.95-4.14,1.42c-1.39,0.47-2.78,0.92-4.14,1.36
				c-1.42,0.44-2.78,0.88-4.2,1.25c-1.39,0.44-2.81,0.85-4.2,1.22c-1.42,0.41-2.85,0.78-4.27,1.12c-3.12,0.81-6.24,1.56-9.42,2.2
				c-1.08,0.24-2.2,0.47-3.29,0.68c-0.2,0.03-0.37,0.07-0.58,0.1c-1.32,0.27-2.68,0.51-4,0.75c-1.46,0.27-2.95,0.47-4.41,0.71
				c-3.46,0.54-6.95,1.02-10.44,1.39c-0.92,0.1-1.83,0.2-2.74,0.27c-1.19,0.14-2.41,0.24-3.59,0.34c-1.15,0.07-2.34,0.17-3.49,0.24
				c-0.92,0.07-1.83,0.14-2.78,0.17c-1.29,0.07-2.58,0.14-3.86,0.2c-1.12,0.03-2.24,0.07-3.39,0.1c-0.61,0-1.19,0.03-1.8,0.03
				c-1.32,0-2.68,0.03-4,0.03c-1.36,0-2.71-0.03-4.03-0.03c-1.19-0.03-2.34-0.03-3.49-0.1c-1.02,0-1.97-0.03-2.95-0.1
				c-0.88-0.03-1.76-0.07-2.64-0.14c-1.05-0.03-2.14-0.14-3.22-0.2c-0.95-0.07-1.9-0.14-2.85-0.2c-1.29-0.1-2.61-0.24-3.93-0.34
				c-1.32-0.14-2.68-0.27-4-0.44c-1.69-0.2-3.36-0.41-5.05-0.64c-1.49-0.2-2.98-0.41-4.44-0.68c-1.12-0.14-2.24-0.34-3.36-0.54
				c-1.12-0.17-2.2-0.37-3.29-0.61c-0.88-0.14-1.73-0.3-2.61-0.47c-1.02-0.2-2.03-0.41-3.05-0.61c-6.47-1.39-12.81-3.02-19.05-4.95
				c-1.19-0.34-2.41-0.71-3.59-1.12c-2.81-0.88-5.63-1.83-8.37-2.85c-2.68-0.98-5.36-2.03-8-3.08c-1.8-0.75-3.56-1.49-5.36-2.27
				c-0.98-0.44-2-0.85-2.98-1.32c-1.19-0.54-2.37-1.08-3.56-1.66c-0.68-0.31-1.36-0.64-2.03-0.98c-1.15-0.54-2.27-1.08-3.39-1.66
				c-3.39-1.73-6.75-3.53-10.03-5.39l-2.44-1.42c-0.31-0.14-0.58-0.3-0.81-0.47c-5.36-3.15-10.54-6.51-15.59-10.07
				c-34.98-24.58-62.88-58.51-80.1-98.17c-12.41-28.47-19.25-59.9-19.25-92.95c0-33.15,6.92-64.68,19.39-93.25
				c36.37-83.39,120.06-141.42,217.18-140.2c93.96,1.19,175.08,58.71,210.84,140.2c12.14,27.52,19.05,57.83,19.56,89.59
				c0.51,34.37-6.37,67.08-19.22,96.61c-4.34,10-9.36,19.63-14.98,28.81c-3.56,5.8-2.64,13.25,2.1,18.1l22.74,23.29l119.11,122
				c5.63,5.73,14.54,5.9,20.37,0.85c0.75-0.61,1.46-1.36,2.1-2.17c42.81-55.05,73.46-120,87.86-190.87
				c6.13-30.03,9.35-61.12,9.35-92.95C1148.59,250.51,941.31,43.27,685.66,43.27z M311.91,547.11h-45.08V502h45.08V547.11z
				 M359,642.26h-27.46V614.8H359V642.26z M361.44,527.99H338.9v-22.58h22.54V527.99z M368.83,428.44h-33.35v-33.35h33.35V428.44z
				 M390.86,336.71h-23.53v-23.52h23.53V336.71z M392.35,281.33h-22.54v-22.58h22.54V281.33z M431.57,748.19h-13.73v-13.73h13.73
				V748.19z M469.84,222.45h-37.25v-37.25h37.25V222.45z M490.89,144.48h-17.63v-17.66h17.63V144.48z M151.99,668.53h78.23V590.3
				h-78.23V668.53z"/>
		</g>
		<path class="st0" d="M967.38,861.44c0,0.81-0.03,1.59-0.14,2.41c0,0.1,0,0.24-0.03,0.34c-0.07,0.64-0.17,1.32-0.31,1.97
			c0,0.1,0,0.17-0.03,0.24c-0.1,0.44-0.2,0.88-0.34,1.32c-0.03,0.17-0.07,0.34-0.14,0.54c-0.1,0.34-0.2,0.68-0.34,1.02
			c-0.34,1.15-0.81,2.24-1.39,3.29c-0.14,0.27-0.27,0.54-0.41,0.78c-0.37,0.68-0.81,1.32-1.25,1.97c-0.37,0.54-0.75,1.05-1.15,1.53
			c-0.1,0.1-0.17,0.17-0.24,0.27c-0.54,0.64-1.15,1.25-1.76,1.83c-0.03,0.03-0.07,0.07-0.1,0.1c-0.68,0.64-1.39,1.22-2.17,1.8
			c0,0.03-0.07,0.07-0.07,0.07c-0.1,0.07-0.17,0.14-0.27,0.17c-2.3,1.69-4.61,3.36-6.95,4.98c-2.41,1.69-4.85,3.36-7.32,4.98
			c-2.44,1.66-4.91,3.29-7.39,4.88c-2.51,1.59-4.98,3.15-7.49,4.71c-0.03,0-0.03,0-0.03,0c-2.44,1.53-4.91,3.02-7.39,4.44
			c-0.31,0.2-0.64,0.41-0.95,0.58c-1.86,1.08-3.73,2.17-5.59,3.22c-0.81,0.47-1.66,0.95-2.51,1.42c-0.1,0.07-0.24,0.14-0.37,0.2
			c-1.9,1.05-3.8,2.1-5.73,3.15c-0.34,0.2-0.68,0.37-1.05,0.58c-2.03,1.08-4.07,2.17-6.1,3.22c-0.78,0.41-1.56,0.81-2.34,1.19
			c-2.14,1.12-4.27,2.17-6.41,3.22c-0.17,0.07-0.34,0.17-0.47,0.24c-2.31,1.15-4.64,2.24-6.95,3.36c-0.64,0.31-1.32,0.61-1.97,0.88
			c-2.41,1.15-4.85,2.24-7.29,3.32c-2.71,1.22-5.46,2.37-8.24,3.53c-2.14,0.92-4.3,1.83-6.51,2.68c-0.14,0.07-0.27,0.14-0.44,0.17
			c-0.88,0.37-1.83,0.75-2.75,1.12c-4.68,1.83-9.36,3.59-14.07,5.25c-0.85,0.34-1.76,0.64-2.64,0.95c-2.41,0.85-4.81,1.66-7.25,2.47
			c-2.85,0.95-5.73,1.86-8.61,2.71c-1.42,0.47-2.88,0.92-4.34,1.32c-1.25,0.41-2.54,0.78-3.8,1.12c-1.93,0.58-3.86,1.12-5.8,1.66
			c-2.64,0.71-5.25,1.39-7.9,2.07c-1.53,0.41-3.05,0.78-4.58,1.15c-2.78,0.68-5.63,1.36-8.44,2c-2.3,0.51-4.64,1.02-6.98,1.49
			c-1.12,0.24-2.2,0.47-3.32,0.68c-1.49,0.31-2.98,0.61-4.51,0.85c-0.17,0.07-0.34,0.1-0.51,0.1c-3.52,0.68-7.05,1.29-10.61,1.86
			c-0.27,0.07-0.51,0.1-0.78,0.14c-0.61,0.1-1.19,0.2-1.76,0.31c-0.58,0.14-1.15,0.2-1.73,0.3c-1.12,0.17-2.24,0.34-3.36,0.51
			c-0.98,0.14-1.97,0.3-2.91,0.41h-0.14c-0.41,0.07-0.81,0.14-1.22,0.17c-0.85,0.14-1.69,0.24-2.54,0.37
			c-0.85,0.1-1.73,0.2-2.58,0.31c-0.34,0.07-0.68,0.14-1.05,0.14c-0.54,0.1-1.12,0.17-1.66,0.24c-1.56,0.2-3.15,0.37-4.71,0.54h-0.1
			c-1.66,0.17-3.32,0.37-4.98,0.54c-0.51,0.03-1.02,0.1-1.49,0.14c-0.88,0.1-1.76,0.17-2.61,0.24c-0.92,0.1-1.83,0.17-2.75,0.27
			c-0.54,0.03-1.12,0.1-1.69,0.14c-0.54,0.03-1.12,0.1-1.66,0.14c-0.17,0-0.34,0.03-0.51,0.03c-0.78,0.07-1.56,0.14-2.3,0.17
			c-0.78,0.03-1.56,0.1-2.34,0.17c-0.64,0.03-1.32,0.07-2,0.1c-0.2,0.03-0.37,0.03-0.58,0.03c-0.85,0.07-1.73,0.14-2.58,0.17
			c-1.02,0.07-2.03,0.1-3.05,0.14c-0.88,0.07-1.76,0.1-2.68,0.14c-3.25,0.14-6.51,0.24-9.8,0.31c-3.46,0.1-6.95,0.14-10.44,0.14
			c-3.49,0-7.02-0.03-10.51-0.14c-3.36-0.07-6.68-0.17-10.03-0.34h-0.41c-1.53-0.07-3.05-0.14-4.54-0.24
			c-0.47,0-0.98-0.03-1.46-0.07c-1.46-0.07-2.91-0.17-4.37-0.27c-1.53-0.1-3.02-0.2-4.51-0.34c-1.97-0.14-3.9-0.27-5.83-0.47
			c-0.92-0.07-1.83-0.14-2.75-0.24c-0.51-0.03-1.02-0.1-1.53-0.14c-0.47-0.07-0.88-0.1-1.32-0.17h-0.14
			c-3.12-0.31-6.24-0.68-9.36-1.05c-1.53-0.17-3.09-0.37-4.64-0.58c-0.88-0.1-1.83-0.27-2.75-0.37c-1.02-0.17-2.03-0.31-3.05-0.44
			c-1.69-0.24-3.36-0.51-5.05-0.78c-0.98-0.14-2-0.31-3.02-0.47c-1.12-0.17-2.24-0.34-3.35-0.54c-2-0.34-4-0.71-6-1.08
			c-1.42-0.24-2.88-0.51-4.3-0.81c-1.49-0.27-3.02-0.61-4.54-0.92c-1.49-0.31-2.98-0.61-4.51-0.95c-3.49-0.75-6.95-1.53-10.37-2.37
			c-1.05-0.24-2.07-0.47-3.05-0.71c-1.02-0.24-2.03-0.47-3.05-0.75c-0.41-0.1-0.85-0.24-1.25-0.34c-1.53-0.41-3.05-0.78-4.61-1.22
			c-2.95-0.78-5.9-1.59-8.81-2.44c-1.49-0.44-2.92-0.88-4.37-1.32c-1.49-0.44-2.91-0.88-4.37-1.32c-1.46-0.47-2.92-0.92-4.34-1.39
			c-1.46-0.47-2.88-0.95-4.34-1.42c-4.3-1.46-8.61-2.95-12.85-4.51c-1.73-0.61-3.42-1.25-5.08-1.9c-2.03-0.75-4.07-1.53-6.03-2.34
			c-0.27-0.1-0.51-0.2-0.78-0.3c-1.69-0.64-3.36-1.36-5.02-2.03c-1.22-0.47-2.44-0.98-3.63-1.53c-7.46-3.15-14.78-6.47-22-9.97
			c-2.41-1.15-4.75-2.34-7.12-3.53c-0.88-0.44-1.76-0.88-2.61-1.36c-0.85-0.44-1.73-0.88-2.58-1.36c-1.29-0.64-2.61-1.32-3.9-2.03
			c-6.51-3.46-12.95-7.12-19.29-10.91c-0.98-0.58-1.97-1.19-2.95-1.8c-1.73-1.02-3.42-2.07-5.08-3.12
			c-0.88-0.58-1.76-1.12-2.64-1.66c-3.56-2.27-7.12-4.58-10.61-7.02c-1.46-0.95-2.92-1.93-4.37-2.95c-0.44-0.3-0.88-0.61-1.32-0.92
			c-1.15-0.78-2.27-1.59-3.39-2.41c-0.88-0.61-1.76-1.22-2.64-1.86c-0.64-0.44-1.29-0.92-1.93-1.39c-0.47-0.34-0.95-0.71-1.42-1.05
			c0,0-0.03-0.03-0.07-0.03c-0.31-0.24-0.61-0.47-0.88-0.71c-0.1-0.07-0.2-0.14-0.27-0.2c-10.61-8.95-11.56-25.22-1.73-35.25
			l15.22-15.59l7.46-7.63l89.32-91.45l16.88-17.29c7.69-7.86,19.8-9.59,29.32-3.97c0.24,0.17,0.51,0.34,0.81,0.47l2.44,1.42
			c3.29,1.86,6.64,3.66,10.03,5.39c1.12,0.58,2.24,1.12,3.39,1.66c0.68,0.34,1.36,0.68,2.03,0.98c1.19,0.58,2.37,1.12,3.56,1.66
			c0.98,0.47,2,0.88,2.98,1.32c1.8,0.78,3.56,1.53,5.36,2.27c2.64,1.08,5.32,2.1,8,3.08c2.75,1.02,5.56,1.97,8.37,2.85
			c1.19,0.41,2.41,0.78,3.59,1.12c6.24,1.93,12.58,3.56,19.05,4.95c1.02,0.2,2.03,0.41,3.05,0.61c0.88,0.17,1.73,0.34,2.61,0.47
			c1.08,0.24,2.17,0.44,3.29,0.61c1.12,0.2,2.24,0.41,3.36,0.54c1.46,0.27,2.95,0.47,4.44,0.68c1.69,0.24,3.36,0.44,5.05,0.64
			c1.32,0.17,2.68,0.3,4,0.44c1.32,0.1,2.64,0.24,3.93,0.34c0.95,0.07,1.9,0.14,2.85,0.2c1.08,0.07,2.17,0.17,3.22,0.2
			c0.88,0.07,1.76,0.1,2.64,0.14c0.98,0.07,1.93,0.1,2.95,0.1c1.15,0.07,2.3,0.07,3.49,0.1c1.32,0,2.68,0.03,4.03,0.03
			c1.32,0,2.68-0.03,4-0.03c0.61,0,1.19-0.03,1.8-0.03c1.15-0.03,2.27-0.07,3.39-0.1c1.29-0.07,2.58-0.14,3.86-0.2
			c0.95-0.03,1.86-0.1,2.78-0.17c1.15-0.07,2.34-0.17,3.49-0.24c1.19-0.1,2.41-0.2,3.59-0.34c0.92-0.07,1.83-0.17,2.74-0.27
			c3.49-0.37,6.98-0.85,10.44-1.39c1.46-0.24,2.95-0.44,4.41-0.71c1.32-0.24,2.68-0.47,4-0.75c0.2-0.03,0.37-0.07,0.58-0.1
			c1.08-0.2,2.2-0.44,3.29-0.68c3.19-0.64,6.3-1.39,9.42-2.2c1.42-0.34,2.85-0.71,4.27-1.12c1.39-0.37,2.81-0.78,4.2-1.22
			c1.42-0.37,2.78-0.81,4.2-1.25c1.36-0.44,2.75-0.88,4.14-1.36c1.39-0.47,2.74-0.95,4.14-1.42c0.24-0.1,0.51-0.17,0.75-0.27
			c2.14-0.78,4.27-1.59,6.37-2.44c3.02-1.19,6.03-2.41,8.98-3.76c1.22-0.54,2.41-1.08,3.63-1.66c2.71-1.25,5.39-2.54,8.03-3.93
			c2.34-1.19,4.71-2.44,7.02-3.73c0.17-0.1,0.37-0.2,0.58-0.34c0.88-0.47,1.76-0.98,2.64-1.49c9.46-5.49,21.46-3.76,29.12,4.1
			l17.25,17.66l111.76,114.44C965.14,849.34,967.38,855.41,967.38,861.44z"/>
	</g>
	<g>
		<path class="st2" d="M1556.88,681.6c-25.6,0-46.97-2.13-64.04-6.4c-17.07-4.27-30.74-11.1-40.99-20.49
			c-10.25-9.39-17.5-21.69-21.77-36.89c-4.27-15.18-6.4-33.89-6.4-56.09V452.09c0-21.86,2.13-40.47,6.4-55.84
			c4.27-15.37,11.52-27.75,21.77-37.16c10.25-9.37,23.92-16.21,40.99-20.48s38.43-6.42,64.04-6.42h243.87v66.09h-243.87
			c-11.26,0-20.49,0.95-27.66,2.82c-7.16,1.88-12.89,4.87-17.16,8.97s-7.16,9.56-8.72,16.4c-1.53,6.84-2.3,15.37-2.3,25.62v23.56
			h297.66v62h-297.66v24.59c0,10.59,0.78,19.29,2.3,26.12c1.56,6.84,4.36,12.3,8.47,16.4c4.08,4.1,9.81,6.91,17.16,8.46
			c7.33,1.54,16.65,2.3,27.91,2.3h243.87v66.09H1556.88z"/>
		<path class="st2" d="M1982.12,681.6c-25.96,0-47.56-2.13-64.81-6.4c-17.25-4.27-30.99-11.1-41.24-20.49
			c-10.25-9.39-17.5-21.69-21.77-36.89c-4.27-15.18-6.42-33.89-6.42-56.09v-37.41c0-22.19,2.15-40.99,6.42-56.36
			c4.27-15.37,11.52-27.74,21.77-37.14c10.25-9.39,23.98-16.21,41.24-20.49c17.25-4.27,38.85-6.4,64.81-6.4h154.2v-89.65h76.34
			v247.45c0,22.21-2.13,40.91-6.4,56.09c-4.28,15.2-11.52,27.5-21.77,36.89s-23.9,16.23-40.99,20.49
			c-17.08,4.27-38.61,6.4-64.55,6.4H1982.12z M1924.22,559.67c0,12.3,0.93,22.21,2.83,29.71c1.87,7.52,5.37,13.33,10.5,17.43
			c5.12,4.1,12.04,6.84,20.74,8.19c8.72,1.37,19.9,2.06,33.56,2.06h85.04c11.96,0,21.77-0.78,29.46-2.3
			c7.69-1.54,13.74-4.44,18.19-8.72c4.42-4.25,7.51-10.06,9.22-17.41c1.71-7.33,2.55-16.82,2.55-28.44V469.5h-144.98
			c-13.31,0-24.33,0.69-33.05,2.06c-8.71,1.37-15.62,4.1-20.74,8.19c-5.12,4.1-8.63,9.9-10.5,17.43c-1.9,7.51-2.83,17.41-2.83,29.71
			V559.67z"/>
		<path class="st2" d="M2271.59,681.6V520.73c0-20.84,2.37-38.59,7.16-53.29c4.78-14.67,12.38-26.71,22.8-36.11
			c10.42-9.39,23.83-16.3,40.21-20.74c16.41-4.44,36.38-6.67,59.96-6.67h58.91v62h-56.86c-10.61,0-19.48,0.86-26.66,2.55
			c-7.16,1.71-12.89,4.61-17.16,8.72c-4.27,4.1-7.35,9.73-9.22,16.9c-1.87,7.18-2.8,16.23-2.8,27.16V681.6H2271.59z"/>
		<path class="st2" d="M2562.06,681.6c-20.15,0-36.72-1.7-49.68-5.12c-12.99-3.41-23.33-8.27-31.01-14.61
			c-7.68-6.31-13.07-14-16.13-23.05s-4.61-19.22-4.61-30.48v-26.13c0-11.62,1.45-21.94,4.34-31.01c2.9-9.03,7.94-16.73,15.12-23.05
			s16.99-11.1,29.45-14.34c12.46-3.24,28.28-4.87,47.4-4.87h205.44v-6.15c0-17.75-3.58-29.62-10.75-35.6
			c-7.19-5.96-19.31-8.97-36.38-8.97h-198.34v-54.3h198.34c22.18,0,41.05,2.06,56.59,6.15c15.54,4.1,28.28,10.32,38.18,18.7
			c9.9,8.36,17.16,18.95,21.77,31.75c4.61,12.82,6.91,28.11,6.91,45.86v67.62c0,20.17-1.96,37.06-5.89,50.72
			c-3.92,13.67-10.78,24.78-20.49,33.31c-9.75,8.53-22.74,14.59-38.93,18.19c-16.23,3.58-36.63,5.37-61.23,5.37H2562.06z
			 M2762.39,556.08h-197.25c-8.88,0-15.88,1.96-20.99,5.89c-5.14,3.94-7.69,11.37-7.69,22.28v18.97c0,9.9,2.74,16.73,8.19,20.48
			c5.45,3.77,13.14,5.64,23.05,5.64h143.46c8.88,0,16.57-0.67,23.05-2.04s11.8-3.85,15.88-7.43c4.11-3.6,7.16-8.63,9.22-15.12
			c2.06-6.48,3.08-14.86,3.08-25.1V556.08z"/>
		<path class="st2" d="M3134.86,681.6l-161.4-131.16V681.6h-76.84V314.27h76.84v218.26l160.37-128.6h99.39l-172.67,133.73
			l177.28,143.96H3134.86z"/>
		<path class="st2" d="M3733.86,601.17h-241.82l-49.71,80.43h-89.64l202.88-322.77c6.14-9.9,13.49-18.1,22.02-24.59
			c8.53-6.48,20.84-9.73,36.88-9.73c15.73,0,27.84,3.25,36.38,9.73c8.53,6.49,15.88,14.69,22.05,24.59l201.86,322.77h-90.17
			L3733.86,601.17z M3528.42,541.23h169.06l-84.53-137.82L3528.42,541.23z"/>
		<path class="st2" d="M4158.97,681.6V526.88c0-11.62-0.97-21.09-2.83-28.44c-1.87-7.35-5.11-13.14-9.72-17.43
			c-4.61-4.27-10.93-7.24-18.97-8.95c-8.04-1.71-18.19-2.57-30.49-2.57h-67.03c-11.96,0-21.96,0.86-29.99,2.57
			c-8,1.71-14.42,4.69-19.19,8.95c-4.8,4.28-8.13,10.08-10,17.43c-1.9,7.35-2.83,16.82-2.83,28.44V681.6h-76.34V524.31
			c0-22.19,2.15-40.99,6.42-56.36c4.27-15.37,11.52-27.74,21.77-37.14c10.25-9.39,23.92-16.21,40.99-20.49
			c17.07-4.27,38.43-6.4,64.04-6.4h76.77c25.98,0,47.5,2.13,64.57,6.4c17.07,4.28,30.74,11.1,40.99,20.49
			c10.25,9.41,17.5,21.77,21.77,37.14c4.27,15.37,6.42,34.17,6.42,56.36V681.6H4158.97z"/>
		<path class="st2" d="M4388.98,681.6c-20.15,0-36.72-1.7-49.68-5.12c-12.99-3.41-23.33-8.27-30.99-14.61
			c-7.69-6.31-13.08-14-16.16-23.05c-3.05-9.05-4.61-19.22-4.61-30.48v-26.13c0-11.62,1.46-21.94,4.36-31.01
			c2.9-9.03,7.94-16.73,15.11-23.05c7.19-6.32,17.01-11.1,29.46-14.34c12.46-3.24,28.28-4.87,47.4-4.87h189.49v-6.15
			c0-17.75-3.58-29.62-10.75-35.6c-7.19-5.96-19.31-8.97-36.38-8.97h-216.91v-54.3h216.91c22.18,0,41.05,2.06,56.59,6.15
			s28.28,10.32,38.19,18.7c9.9,8.36,17.16,18.95,21.77,31.75c4.61,12.82,6.91,28.11,6.91,45.86v67.62c0,20.17-1.96,37.06-5.89,50.72
			c-3.92,13.67-10.78,24.78-20.49,33.31c-9.75,8.53-22.74,14.59-38.93,18.19c-16.23,3.58-36.63,5.37-61.23,5.37H4388.98z
			 M4573.37,556.08h-181.3c-8.88,0-15.88,1.96-20.99,5.89c-5.14,3.94-7.69,11.37-7.69,22.28v18.97c0,9.9,2.74,16.73,8.19,20.48
			c5.45,3.77,13.14,5.64,23.05,5.64h127.51c8.88,0,16.57-0.67,23.05-2.04c6.48-1.37,11.8-3.85,15.88-7.43
			c4.11-3.6,7.16-8.63,9.22-15.12c2.06-6.48,3.08-14.86,3.08-25.1V556.08z"/>
		<path class="st2" d="M4707.58,681.6V314.27h77.9V681.6H4707.58z"/>
		<path class="st2" d="M4920.71,548.39c0,15.37,3.33,26.05,10,32.03c6.67,5.98,17.85,8.95,33.58,8.95h154.64V403.92h74.28v272.56
			c0,31.08-7.69,53.54-23.05,67.37s-40.46,20.76-75.31,20.76h-143.05V702.1h136.39c10.59,0,18.34-2.06,23.33-6.15
			c4.92-4.1,7.41-11.96,7.41-23.56v-22.55h-159.28c-20.84,0-38.5-1.96-53.01-5.89c-14.51-3.92-26.32-10-35.35-18.19
			c-9.06-8.19-15.64-18.44-19.72-30.74c-4.11-12.29-6.17-26.8-6.17-43.54V403.92h75.31V548.39z"/>
		<path class="st2" d="M5264.93,681.6V465.92H5226v-62h38.93v-78.38h77.87v78.38h71.67v62h-71.67V681.6H5264.93z"/>
		<path class="st2" d="M5477.47,388.04c-9.56,0-16.32-1.87-20.24-5.64c-3.92-3.75-5.89-9.73-5.89-17.92v-29.71
			c0-8.21,1.96-14.09,5.89-17.68s10.68-5.39,20.24-5.39h25.1c9.9,0,16.82,1.81,20.74,5.39c3.92,3.58,5.92,9.47,5.92,17.68v29.71
			c0,8.19-1.99,14.17-5.92,17.92c-3.92,3.77-10.84,5.64-20.74,5.64H5477.47z M5451.34,681.6V411.1h77.9v270.5H5451.34z"/>
		<path class="st2" d="M5720.32,681.6c-25.63,0-46.97-2.13-64.04-6.4c-17.1-4.27-30.74-11.1-40.99-20.49s-17.5-21.69-21.77-36.89
			c-4.3-15.18-6.42-33.89-6.42-56.09v-37.41c0-22.19,2.12-40.99,6.42-56.36c4.27-15.37,11.52-27.74,21.77-37.14
			c10.25-9.39,23.89-16.21,40.99-20.49c17.07-4.27,38.4-6.4,64.04-6.4h168.94v65.58H5719.9c-11.96,0-21.77,0.86-29.46,2.57
			c-7.69,1.71-13.74,4.69-18.19,8.95c-4.42,4.28-7.51,10.17-9.22,17.68c-1.71,7.52-2.55,16.91-2.55,28.19v32.78
			c0,10.93,0.84,20.07,2.55,27.41c1.71,7.35,4.8,13.24,9.22,17.68c4.45,4.45,10.5,7.62,18.19,9.48c7.69,1.88,17.5,2.82,29.46,2.82
			h169.85v64.55H5720.32z"/>
		<path class="st2" d="M6271.45,607.83c0,13.66-1.21,25.18-3.58,34.57c-2.4,9.41-7.1,17.01-14.11,22.8
			c-7.01,5.81-16.57,10-28.69,12.55c-12.12,2.57-27.91,3.85-47.37,3.85h-238.76v-59.94h236.4c10.25,0,17.41-1.71,21.52-5.12
			c4.11-3.41,6.14-9.9,6.14-19.47v-9.22c0-10.25-1.96-16.66-5.89-19.22c-3.92-2.57-10.5-3.85-19.72-3.85h-163.14
			c-15.7,0-28.44-1.54-38.15-4.61c-9.75-3.07-17.35-7.68-22.8-13.83c-5.48-6.15-9.16-13.75-11.03-22.8
			c-1.87-9.05-2.8-19.73-2.8-32.02v-21.01c0-11.96,1.28-22.21,3.83-30.74c2.55-8.53,6.76-15.45,12.55-20.74
			c5.82-5.29,13.67-9.14,23.58-11.54c9.9-2.38,22.36-3.58,37.41-3.58h254.62v57.9h-241.78c-7.54,0-12.89,1.37-16.13,4.1
			c-3.27,2.74-4.89,7.68-4.89,14.86v12.8c0,7.86,1.56,13.16,4.61,15.88c3.08,2.74,8.04,4.1,14.86,4.1h156.26
			c17.75,0,32.27,1.46,43.54,4.36c11.27,2.91,20.15,7.52,26.63,13.83c6.48,6.32,10.93,14.53,13.33,24.59
			c2.37,10.09,3.58,22.47,3.58,37.14V607.83z"/>
	</g>
</g>
</svg>
